
        <svg xmlns="http://www.w3.org/2000/svg" xmlns:xlink="http://www.w3.org/1999/xlink" version="1.1" width="3175.717000669292" 
        height="624.9196592227488" viewBox="0 0 3175.717000669292 624.9196592227488">
			
			<g transform="scale(8.785850033464595) translate(10, 10)">
				<defs id="SvgjsDefs1360"></defs><g id="SvgjsG1361" featureKey="symbolFeature-0" transform="matrix(0.1787990721530604,0,0,0.1787990721530604,-1.2737583791405984,-1.255879512073398)" fill="#cdf27e"><g xmlns="http://www.w3.org/2000/svg"><path d="M273.5,150c0.1-0.1-91.1-91.8-91.1-91.8c-2.2-2.2-1.5-5.8,1.2-7.1c18.1-8.9,40.4-6.3,55.7,8.3   c10.1,9.7,15.2,22.8,15.1,35.7c0,2.4,1,4.7,2.7,6.4l23.8,23.8c2.3,2.3,6.3,1.4,7.3-1.6c10.7-30.8,3.8-66.4-20.8-91   c-32-32-82.9-34-117.3-6.1c-0.1-0.1-91.8,91.1-91.8,91.1c-2.2,2.2-5.8,1.5-7.1-1.2c-8.9-18.1-6.3-40.4,8.3-55.7   c9.7-10.1,22.8-15.2,35.7-15.1c2.4,0,4.7-1,6.4-2.7l23.8-23.8c2.3-2.3,1.4-6.3-1.6-7.3C93,1.2,57.4,8.1,32.8,32.7   c-32,32-34,82.9-6.1,117.3c-0.1,0.1,91.1,91.8,91.1,91.8c2.2,2.2,1.5,5.8-1.2,7.1c-18.1,8.9-40.4,6.3-55.7-8.3   c-10.1-9.7-15.2-22.8-15.1-35.7c0-2.4-1-4.7-2.7-6.4l-23.8-23.8c-2.3-2.3-6.3-1.4-7.3,1.6c-10.7,30.8-3.8,66.4,20.8,91   c32,32,82.9,34,117.3,6.1c0.1,0.1,91.8-91.1,91.8-91.1c2.2-2.2,5.8-1.5,7.1,1.2c8.9,18.1,6.3,40.4-8.3,55.7   c-9.7,10.1-22.8,15.2-35.7,15.1c-2.4,0-4.7,1-6.4,2.7l-23.8,23.8c-2.3,2.3-1.4,6.3,1.6,7.3c30.8,10.7,66.4,3.8,91-20.8   C299.4,235.3,301.4,184.4,273.5,150z M232.2,167.4c-13.4-4.5-29-1.4-39.7,9.3c0,0-40.6,40.6-56.4,56.4c-1.2,1.2-3.3,0-2.8-1.7   c4-13.3,0.8-28.2-9.6-38.7c0,0-40.9-40.9-57.5-57.6c-1.2-1.2,0.1-3.3,1.7-2.8c13.4,4.5,29,1.4,39.7-9.3c0,0,40.4-40.4,57.9-57.8   c1.2-1.2,3.4,0.1,2.8,1.7c-5,13.7-2,29.6,9.1,40.7c0,0,40.2,40.2,56.7,56.8C235.2,165.9,233.9,168,232.2,167.4z"></path></g></g><g id="SvgjsG1362" featureKey="nameLeftFeature-0" transform="matrix(1.9535367831438357,0,0,1.9535367831438357,68.65575623283497,0.7476314080381332)" fill="#cdf27e"><path d="M4.12 6 l0 14 l-2.92 0 l0 -14 l2.92 0 z M15.68 6 l2.92 0 l0 14 l-2.22 0 l-6.94 -8.68 l0 8.68 l-2.92 0 l0 -14 l2.26 0 l6.9 8.7 l0 -8.7 z M25.580000000000002 5.76 c2.46 0 4.02 1.54 4.76 2.9 l-2.16 1.28 c-0.76 -1.06 -1.5 -1.6 -2.6 -1.6 c-0.98 0 -1.7 0.58 -1.7 1.38 s0.46 1.22 1.56 1.62 l0.96 0.34 c3.1 1.1 4.32 2.48 4.32 4.4 c0 2.82 -2.68 4.22 -5.06 4.22 c-2.52 0 -4.48 -1.5 -5.16 -3.46 l2.24 -1.18 c0.5 1.02 1.34 2 2.92 2 c1.14 0 2.02 -0.5 2.02 -1.54 c0 -1 -0.6 -1.44 -2.12 -2.02 l-0.86 -0.3 c-2.06 -0.74 -3.72 -1.76 -3.72 -4.2 c0 -2.24 2.1 -3.84 4.6 -3.84 z M35.54 6 l0 14 l-2.92 0 l0 -14 l2.92 0 z M51.120000000000005 12.559999999999999 c0.62 4.7 -2.44 7.64 -6.22 7.64 c-3.98 0 -7.26 -2.94 -7.26 -7.2 s3.36 -7.2 7.26 -7.2 c1.86 0 3.5 0.6 4.7 1.66 l-1.76 1.98 c-0.74 -0.52 -1.74 -0.9 -2.76 -0.9 c-2.54 0 -4.4 1.86 -4.4 4.46 s1.8 4.46 4.22 4.46 c1.84 0 3.12 -0.66 3.52 -2.42 l-3.3 0 l0 -2.48 l6 0 z M61.839999999999996 6 l2.92 0 l0 14 l-2.92 0 l0 -5.66 l-5.64 0 l0 5.66 l-2.92 0 l0 -14 l2.92 0 l0 5.66 l5.64 0 l0 -5.66 z M76.66 6 l0 2.68 l-3.48 0 l0 11.32 l-2.92 0 l0 -11.32 l-3.5 0 l0 -2.68 l9.9 0 z"></path></g><g id="SvgjsG1363" featureKey="nameRightFeature-0" transform="matrix(1.9725295476900873,0,0,1.9725295476900873,222.63296397842666,0.5593282471673398)" fill="#cdf27e"><path d="M8.96 6.52 l-7.18 0 l0 6.18 l5.94 0 l0 0.5 l-5.94 0 l0 6.8 l-0.58 0 l0 -14 l7.76 0 l0 0.52 z M17.22 5.800000000000001 c3.44 0 7.08 2.98 7.08 7.2 s-3.64 7.2 -7.08 7.2 s-7.06 -2.98 -7.06 -7.2 s3.62 -7.2 7.06 -7.2 z M17.22 19.6 c3.1 0 6.5 -2.68 6.5 -6.6 s-3.4 -6.6 -6.5 -6.6 c-3.08 0 -6.48 2.68 -6.48 6.6 s3.4 6.6 6.48 6.6 z M36.06 20 l-0.72 0 l-4.08 -5.38 c-0.2 0.02 -0.4 0.02 -0.6 0.02 l-3.68 0 l0 5.36 l-0.58 0 l0 -14 l4.26 0 c3.14 0 4.8 1.94 4.8 4.3 c0 2.08 -1.22 3.8 -3.56 4.24 z M26.98 14.04 l3.76 0 c2.52 0 4.14 -1.46 4.14 -3.74 c0 -2.32 -1.62 -3.72 -4.14 -3.72 l-3.76 0 l0 7.46 z M50.28 13.3 c0.04 4.28 -3.02 6.9 -6.56 6.9 s-7.06 -2.98 -7.06 -7.2 s3.62 -7.2 7.06 -7.2 c1.68 0 3.26 0.6 4.56 1.66 l-0.4 0.46 c-1.18 -1 -2.64 -1.52 -4.1 -1.52 c-3.14 0 -6.54 2.68 -6.54 6.6 s3.28 6.6 6.48 6.6 c3 0 5.74 -2.02 6 -5.74 l-4.76 0 l0 -0.56 l5.32 0 z M52.96 19.42 l7.28 0 l0 0.58 l-7.68 0 l-0.18 0 l0 -14 l0.58 0 l7.1 0 l0 0.58 l-7.1 0 l0 6.1 l5.66 0 l0 0.58 l-5.66 0 l0 6.16 z"></path></g>
			</g>
		</svg>
	